<?xml version="1.0" standalone="no"?>
<svg xmlns="http://www.w3.org/2000/svg" viewBox="0 0 99.451 114.837" width="99.451" height="114.837"><polygon fill="none" stroke="#564592" stroke-width="3" points="97.951,29.45925 97.951,85.37775 49.7255,113.337 1.5,85.37775 1.5,29.45925 49.7255,1.5"></polygon><g fill="#cca131" color="#cca131" transform="translate(27.725499999999997 22.500500000000002) scale(0.6875)"><svg width="64.0" height="64.0" x="0.0" y="0.0" viewBox="0 0 64 64"><g><path d="M19,16.979v2a1,1,0,0,0,2,0v-2a1,1,0,0,0-2,0Z"></path><path d="M9.394,24.373a1,1,0,0,0,.707-1.707L8.686,21.251a1,1,0,1,0-1.414,1.414L8.687,24.08A1,1,0,0,0,9.394,24.373Z"></path><path d="M3,34.979H5a1,1,0,0,0,0-2H3a1,1,0,0,0,0,2Z"></path><path d="M7.272,46.707a1,1,0,0,0,1.414,0L10.1,45.293a1,1,0,0,0-1.414-1.414L7.272,45.293A1,1,0,0,0,7.272,46.707Z"></path><path d="M31.314,21.251,29.9,22.666a1,1,0,1,0,1.414,1.414l1.415-1.415a1,1,0,1,0-1.414-1.414Z"></path><path d="M54.955,44a11.007,11.007,0,0,0-13.492-9.7A12.959,12.959,0,0,0,31,29c-.028,0-.056,0-.084,0A11.995,11.995,0,1,0,12.221,43.1,8.987,8.987,0,0,0,19,58H55a7,7,0,1,0-.045-14ZM10,33.979A10,10,0,0,1,28.778,29.2a13.094,13.094,0,0,0-10.621,10.84,8.943,8.943,0,0,0-4.448,1.692A10.006,10.006,0,0,1,10,33.979ZM55,56H19a7,7,0,0,1-.009-14h0a1,1,0,0,0,1.054-.916,10.99,10.99,0,0,1,20.161-5.093,1,1,0,0,0,1.132.408A9.006,9.006,0,0,1,53,44.973c0,.024,0,.093,0,.118a1,1,0,0,0,1.168.985A5,5,0,1,1,55,56Z"></path><path d="M53.217,9.067A5.988,5.988,0,0,0,42.083,11,4,4,0,1,0,42,19H54A5,5,0,0,0,54,9,4.608,4.608,0,0,0,53.217,9.067ZM57,14a3,3,0,0,1-3,3H42a2,2,0,0,1,0-4,1.958,1.958,0,0,1,.677.129,1,1,0,0,0,1.342-.978c0-.034-.014-.117-.019-.151a4,4,0,0,1,4-4,3.961,3.961,0,0,1,3.73,2.6A1,1,0,0,0,53,11.187,2.969,2.969,0,0,1,54,11,3,3,0,0,1,57,14Z"></path></g></svg></g><path fill="#cca131" fill-rule="nonzero" d="M18.23 0.34L19.96 0.34L16.21 17.50L13.66 17.50L10.00 3.44L6.44 17.50L3.72 17.50L0 0.34L2.86 0.34L5.71 14.06L9.21 0.34L11.82 0.34L15.34 14.11L18.23 0.34ZM22.46 5.07Q22.85 0 28.03 0L28.03 0Q30.66 0 32.16 1.13Q33.66 2.27 33.66 4.20L33.66 4.20Q33.66 5.57 33.03 6.79Q32.40 8.01 30.72 9.72L30.72 9.72L25.26 15.23L33.82 15.23L33.82 17.50L22.23 17.50L22.23 15.68L28.17 9.72Q29.26 8.60 29.82 7.74Q30.38 6.89 30.59 6.09Q30.80 5.29 30.80 4.20L30.80 4.20Q30.80 2.74 30.09 1.96Q29.37 1.18 28.03 1.18L28.03 1.18Q26.54 1.18 25.77 2.23Q25.00 3.28 24.92 5.52L24.92 5.52L22.46 5.07ZM49.95 8.76L49.95 17.50L48.52 17.50L47.94 15.40Q46.51 17.84 43.68 17.84L43.68 17.84Q41.10 17.84 39.66 16.79Q38.22 15.74 37.66 13.80Q37.10 11.87 37.10 8.93L37.10 8.93Q37.10 5.94 37.70 3.99Q38.30 2.04 39.80 1.02Q41.30 0 43.96 0L43.96 0Q46.79 0 48.02 1.16Q49.25 2.32 49.53 4.59L49.53 4.59L47.24 5.01Q46.90 1.18 43.96 1.18L43.96 1.18Q42.36 1.18 41.50 2.02Q40.63 2.86 40.29 4.51Q39.96 6.16 39.96 8.93L39.96 8.93Q39.96 11.62 40.26 13.27Q40.57 14.92 41.37 15.78Q42.17 16.63 43.68 16.63L43.68 16.63Q47.35 16.63 47.49 11.59L47.49 11.59L47.49 10.16L44.35 10.16L44.35 8.76L49.95 8.76Z" transform="translate(24.75, 74.501)"></path></svg>